<svg width="103" height="103" viewBox="0 0 103 103" fill="none" xmlns="http://www.w3.org/2000/svg">
<path d="M51.5003 25.75V77.25M38.6253 62.2292C38.6253 65.7844 41.5075 68.6667 45.0628 68.6667H55.792C60.5326 68.6667 64.3753 64.8239 64.3753 60.0834C64.3753 55.3428 60.5326 51.5 55.792 51.5H47.2087C42.4682 51.5 38.6253 47.6573 38.6253 42.9167C38.6253 38.1762 42.4682 34.3334 47.2087 34.3334H55.792C60.5326 34.3334 64.3753 38.1762 64.3753 42.9167M92.2712 51.5C92.2712 74.0171 74.0174 92.2709 51.5003 92.2709C28.9832 92.2709 10.7295 74.0171 10.7295 51.5C10.7295 28.9829 28.9832 10.7292 51.5003 10.7292C74.0174 10.7292 92.2712 28.9829 92.2712 51.5Z" stroke="#07AFEF" stroke-width="6" stroke-linecap="round"/>
</svg>
