<svg width="103" height="103" viewBox="0 0 103 103" fill="none" xmlns="http://www.w3.org/2000/svg">
<path d="M25.7497 34.3334L33.2601 87.035C33.5516 89.0974 34.5831 90.9834 36.1623 92.3415C37.7415 93.6997 39.7607 94.4372 41.8434 94.4167H61.3276C63.4104 94.4372 65.4295 93.6997 67.0087 92.3415C68.5879 90.9834 69.6194 89.0974 69.9109 87.035L77.2497 34.3334M21.458 34.3334H81.5413M30.0413 64.375C33.4393 62.9515 37.0865 62.2184 40.7705 62.2184C44.4546 62.2184 48.1018 62.9515 51.4997 64.375C54.8976 65.7985 58.5448 66.5317 62.2288 66.5317C65.9129 66.5317 69.5601 65.7985 72.958 64.375M51.4997 34.3334L55.7913 8.58337H64.3747" stroke="#07AFEF" stroke-width="6" stroke-linecap="round" stroke-linejoin="round"/>
</svg>
