<svg width="39" height="39" viewBox="0 0 39 39" fill="none" xmlns="http://www.w3.org/2000/svg">
<path d="M14.7421 5.45996C14.7421 5.45996 9.75006 5.77196 6.55206 8.42396C6.55206 8.42396 6.55206 8.42396 6.47406 8.42396C5.92806 8.96996 5.46006 9.74996 4.99206 10.92C4.52406 12.09 3.90006 13.572 3.43206 15.21C2.41806 18.564 1.56006 22.698 1.56006 26.52C1.56006 26.676 1.56006 26.754 1.63806 26.91C2.80806 28.938 4.83606 30.108 6.86406 30.888C8.89206 31.668 10.6081 31.98 11.5441 31.98C11.7781 31.98 12.0121 31.902 12.1681 31.668L14.0401 29.016C15.6001 29.406 17.3941 29.64 19.4221 29.64C21.4501 29.64 23.3221 29.406 24.8041 29.016L26.6761 31.668C26.8321 31.902 27.0661 31.98 27.3001 31.98C28.2361 31.98 30.0301 31.668 31.9801 30.888C33.9301 30.108 36.0361 28.938 37.2061 26.91C37.4401 26.754 37.4401 26.676 37.4401 26.52C37.4401 22.698 36.5821 18.564 35.6461 15.21C35.1781 13.572 34.5541 12.09 34.0861 10.92C33.6181 9.74996 33.1501 8.96996 32.6041 8.42396C32.6041 8.42396 32.6041 8.42396 32.5261 8.42396C29.2501 5.77196 24.2581 5.45996 24.2581 5.45996C24.1801 5.45996 24.1801 5.45996 24.1021 5.45996C23.8681 5.45996 23.6341 5.69396 23.4781 5.92796C23.4781 5.92796 23.2441 6.47396 23.0101 7.33196C21.5281 7.09796 20.2021 7.01996 19.5001 7.01996C18.7981 7.01996 17.4721 7.09796 15.9901 7.33196C15.8341 6.47396 15.5221 5.92796 15.5221 5.92796C15.3661 5.61596 15.0541 5.45996 14.7421 5.45996ZM14.2741 7.17596C14.3521 7.33196 14.3521 7.48796 14.4301 7.64396C12.6361 8.03396 10.7641 8.73596 8.97006 9.82796C8.65806 9.98396 8.50206 10.218 8.50206 10.53C8.50206 10.842 8.65806 11.154 8.97006 11.232C9.28206 11.388 9.59406 11.31 9.82806 11.154C13.3381 8.89196 17.9401 8.57996 19.5001 8.57996C21.0601 8.57996 25.6621 8.89196 29.2501 11.154C29.4841 11.388 29.7961 11.388 30.1081 11.232C30.4201 11.076 30.5761 10.842 30.5761 10.53C30.5761 10.218 30.4201 9.98396 30.1081 9.82796C28.3141 8.73596 26.3641 8.03396 24.6481 7.64396C24.7261 7.48796 24.7261 7.33196 24.8041 7.17596C25.6621 7.25396 29.1721 7.72196 31.5121 9.59396C31.6681 9.74996 32.2141 10.53 32.6821 11.622C33.1501 12.714 33.6961 14.118 34.1641 15.678C35.1001 18.798 35.8801 22.698 35.8801 26.286C35.0221 27.69 33.3061 28.782 31.5901 29.484C30.0301 30.108 28.5481 30.342 27.8461 30.42L26.5201 28.626C27.2221 28.392 27.7681 28.158 28.3141 27.924C30.2641 27.066 31.3561 26.13 31.3561 26.13C31.6681 25.818 31.6681 25.35 31.4341 25.038C31.2001 24.726 30.6541 24.726 30.3421 24.96C30.3421 24.96 29.5621 25.74 27.7681 26.52C27.1441 26.832 26.2861 27.066 25.4281 27.378C25.1941 27.378 25.0381 27.378 24.8041 27.534C23.2441 27.846 21.5281 28.08 19.5001 28.08C17.4721 28.08 15.7561 27.846 14.2741 27.456C14.1181 27.378 13.8841 27.3 13.7281 27.3C12.7921 27.066 12.0121 26.754 11.3881 26.442C9.59406 25.662 8.81406 24.882 8.81406 24.882C8.65806 24.726 8.42406 24.648 8.19006 24.726C7.87806 24.804 7.64406 24.96 7.56606 25.272C7.48806 25.584 7.56606 25.896 7.80006 26.052C7.80006 26.052 8.89206 26.988 10.8421 27.846C11.3881 28.08 12.0121 28.314 12.6361 28.548L11.3101 30.342C10.5301 30.264 9.12606 30.03 7.56606 29.406C5.85006 28.704 4.21206 27.69 3.27606 26.208C3.27606 22.62 4.05606 18.798 4.99206 15.6C5.46006 13.962 6.00606 12.558 6.47406 11.544C6.94206 10.53 7.48806 9.67196 7.64406 9.51596C9.90606 7.72196 13.3381 7.25396 14.2741 7.17596ZM14.4301 16.38C12.4021 16.38 10.9201 18.174 10.9201 20.28C10.9201 22.386 12.4021 24.18 14.4301 24.18C16.4581 24.18 17.9401 22.386 17.9401 20.28C17.9401 18.174 16.4581 16.38 14.4301 16.38ZM24.5701 16.38C22.5421 16.38 21.0601 18.174 21.0601 20.28C21.0601 22.386 22.5421 24.18 24.5701 24.18C26.5981 24.18 28.0801 22.386 28.0801 20.28C28.0801 18.174 26.5981 16.38 24.5701 16.38ZM14.4301 17.94C15.4441 17.94 16.3801 18.954 16.3801 20.28C16.3801 21.606 15.4441 22.62 14.4301 22.62C13.4161 22.62 12.4801 21.606 12.4801 20.28C12.4801 18.954 13.4161 17.94 14.4301 17.94ZM24.5701 17.94C25.5841 17.94 26.5201 18.954 26.5201 20.28C26.5201 21.606 25.5841 22.62 24.5701 22.62C23.5561 22.62 22.6201 21.606 22.6201 20.28C22.6201 18.954 23.5561 17.94 24.5701 17.94Z" fill="white"/>
</svg>
