<svg width="136" height="136" viewBox="0 0 136 136" fill="none" xmlns="http://www.w3.org/2000/svg">
<path d="M34.0002 62.3335H56.6668M45.3335 51.0002V73.6668M85.0002 68.0002H85.0568M102 56.6668H102.057M98.1468 28.3335H37.8535C32.2451 28.3348 26.8363 30.4153 22.6727 34.1728C18.5091 37.9303 15.8864 43.098 15.3115 48.6768C15.2775 48.9715 15.2548 49.2492 15.2152 49.5382C14.7562 53.3575 11.3335 81.9175 11.3335 90.6668C11.3335 95.1755 13.1246 99.4995 16.3127 102.688C19.5008 105.876 23.8248 107.667 28.3335 107.667C34.0002 107.667 36.8335 104.834 39.6668 102L47.6795 93.9875C49.8044 91.8619 52.6866 90.6675 55.6922 90.6668H80.3082C83.3137 90.6675 86.1959 91.8619 88.3208 93.9875L96.3335 102C99.1668 104.834 102 107.667 107.667 107.667C112.176 107.667 116.5 105.876 119.688 102.688C122.876 99.4995 124.667 95.1755 124.667 90.6668C124.667 81.9118 121.244 53.3575 120.785 49.5382C120.746 49.2548 120.723 48.9715 120.689 48.6825C120.115 43.1026 117.493 37.9336 113.329 34.1749C109.166 30.4162 103.756 28.3349 98.1468 28.3335Z" stroke="#07AFEF" stroke-width="5" stroke-linecap="round" stroke-linejoin="round"/>
</svg>
