<svg width="51" height="51" viewBox="0 0 51 51" fill="none" xmlns="http://www.w3.org/2000/svg">
<path d="M12.75 23.375H21.25M17 19.125V27.625M31.875 25.5H31.8963M38.25 21.25H38.2713M36.805 10.625H14.195C12.0918 10.6255 10.0635 11.4057 8.5022 12.8147C6.94085 14.2238 5.95732 16.1617 5.74175 18.2538C5.729 18.3643 5.7205 18.4684 5.70562 18.5767C5.5335 20.009 4.25 30.719 4.25 34C4.25 35.6908 4.92165 37.3123 6.11719 38.5078C7.31274 39.7034 8.93424 40.375 10.625 40.375C12.75 40.375 13.8125 39.3125 14.875 38.25L17.8797 35.2453C18.6766 34.4482 19.7574 34.0002 20.8845 34H30.1155C31.2426 34.0002 32.3234 34.4482 33.1203 35.2453L36.125 38.25C37.1875 39.3125 38.25 40.375 40.375 40.375C42.0658 40.375 43.6873 39.7034 44.8828 38.5078C46.0784 37.3123 46.75 35.6908 46.75 34C46.75 30.7169 45.4665 20.009 45.2944 18.5767C45.2795 18.4705 45.271 18.3642 45.2583 18.2559C45.0432 16.1634 44.0599 14.225 42.4985 12.8155C40.9371 11.406 38.9085 10.6255 36.805 10.625Z" stroke="#07AFEF" stroke-width="3" stroke-linecap="round" stroke-linejoin="round"/>
</svg>
