<svg width="103" height="103" viewBox="0 0 103 103" fill="none" xmlns="http://www.w3.org/2000/svg">
<path d="M12.875 47.2084H25.75C28.0264 47.2084 30.2096 48.1127 31.8193 49.7224C33.429 51.3321 34.3333 53.5153 34.3333 55.7917V68.6667C34.3333 70.9432 33.429 73.1264 31.8193 74.736C30.2096 76.3457 28.0264 77.25 25.75 77.25H21.4583C19.1819 77.25 16.9987 76.3457 15.389 74.736C13.7793 73.1264 12.875 70.9432 12.875 68.6667V47.2084ZM12.875 47.2084C12.875 42.1361 13.8741 37.1134 15.8152 32.4272C17.7562 27.741 20.6013 23.483 24.188 19.8964C27.7747 16.3097 32.0327 13.4646 36.7189 11.5235C41.4051 9.58244 46.4277 8.58337 51.5 8.58337C56.5723 8.58337 61.5949 9.58244 66.2811 11.5235C70.9673 13.4646 75.2253 16.3097 78.812 19.8964C82.3987 23.483 85.2438 27.741 87.1848 32.4272C89.1259 37.1134 90.125 42.1361 90.125 47.2084M90.125 47.2084V68.6667M90.125 47.2084H77.25C74.9736 47.2084 72.7904 48.1127 71.1807 49.7224C69.571 51.3321 68.6667 53.5153 68.6667 55.7917V68.6667C68.6667 70.9432 69.571 73.1264 71.1807 74.736C72.7904 76.3457 74.9736 77.25 77.25 77.25H81.5417C83.8181 77.25 86.0013 76.3457 87.611 74.736C89.2207 73.1264 90.125 70.9432 90.125 68.6667M90.125 68.6667V77.25C90.125 81.8029 88.3164 86.1693 85.097 89.3887C81.8776 92.6081 77.5112 94.4167 72.9583 94.4167H51.5" stroke="#07AFEF" stroke-width="6" stroke-linecap="round" stroke-linejoin="round"/>
</svg>
