<?xml version="1.0" encoding="utf-8"?>
<!-- Generator: Adobe Illustrator 24.3.0, SVG Export Plug-In . SVG Version: 6.00 Build 0)  -->
<svg version="1.1" id="Слой_1" xmlns="http://www.w3.org/2000/svg" xmlns:xlink="http://www.w3.org/1999/xlink" x="0px" y="0px"
	 viewBox="0 0 107.2 20.8" style="enable-background:new 0 0 107.2 20.8;" xml:space="preserve">
<style type="text/css">
	.st0{fill:#07AFEF;}
</style>
<g>
	<g>
		<path class="st0" d="M1.8,19.1V1.8h15.9V5H5v3.8h10.2V12H5v7H1.8z"/>
		<path class="st0" d="M19.2,19.1V1.8h3.2v14.1h14.1v3.2H19.2z"/>
		<path class="st0" d="M37.7,19.1V1.8h3.1v17.3H37.7z"/>
		<path class="st0" d="M42.7,19.1v-0.9l6.5-7.8l-6.5-7.8V1.8h3.4l5.2,6.1l5.1-6.1h3.5v0.9l-6.5,7.8l6.5,7.7v0.9h-3.5l-5.2-6.1
			l-5.2,6.1H42.7z"/>
		<path class="st0" d="M62.4,19.1V1.8h3.1v17.3H62.4z"/>
		<path class="st0" d="M70.9,19.1c-0.9,0-1.7-0.3-2.3-1c-0.7-0.7-1-1.4-1-2.4V5.1c0-0.9,0.3-1.7,1-2.3c0.7-0.7,1.4-1,2.3-1h10.6
			c0.9,0,1.7,0.3,2.3,1c0.7,0.7,1,1.4,1,2.3v10.6c0,0.9-0.3,1.7-1,2.4c-0.7,0.7-1.4,1-2.3,1H70.9z M71.6,15.9h9.2
			c0.4,0,0.7,0,0.7-0.1c0.1-0.1,0.1-0.3,0.1-0.8V5.8c0-0.4,0-0.7-0.1-0.8C81.5,5,81.2,5,80.8,5h-9.2c-0.4,0-0.7,0-0.8,0.1
			s-0.1,0.3-0.1,0.8V15c0,0.4,0,0.7,0.1,0.8S71.1,15.9,71.6,15.9z"/>
		<path class="st0" d="M87.5,19.1V1.8h3.5l10.6,12.6V1.8h3.2v17.3h-3.5L90.6,6.4v12.6H87.5z"/>
	</g>
</g>
<rect x="74.7" y="4.9" class="st0" width="3" height="3"/>
<rect x="70.6" y="9.1" class="st0" width="3" height="3"/>
<rect x="74.7" y="13.1" class="st0" width="3" height="3"/>
<rect x="78.7" y="9" class="st0" width="3" height="3"/>
<circle class="st0" cx="76.2" cy="10.5" r="1.5"/>
</svg>
