<svg width="103" height="103" viewBox="0 0 103 103" fill="none" xmlns="http://www.w3.org/2000/svg">
<path d="M85.8332 42.9166C85.8332 68.6667 51.4998 94.4167 51.4998 94.4167C51.4998 94.4167 17.1665 68.6667 17.1665 42.9166C17.1665 33.8109 20.7838 25.0781 27.2225 18.6393C33.6613 12.2006 42.3941 8.58331 51.4998 8.58331C60.6056 8.58331 69.3384 12.2006 75.7772 18.6393C82.2159 25.0781 85.8332 33.8109 85.8332 42.9166Z" stroke="#07AFEF" stroke-width="6" stroke-linecap="round" stroke-linejoin="round"/>
<path d="M51.4998 55.7916C58.6105 55.7916 64.3748 50.0273 64.3748 42.9166C64.3748 35.806 58.6105 30.0416 51.4998 30.0416C44.3892 30.0416 38.6248 35.806 38.6248 42.9166C38.6248 50.0273 44.3892 55.7916 51.4998 55.7916Z" stroke="#07AFEF" stroke-width="6" stroke-linecap="round" stroke-linejoin="round"/>
</svg>
