<svg width="51" height="51" viewBox="0 0 51 51" fill="none" xmlns="http://www.w3.org/2000/svg">
<g clip-path="url(#clip0_2767_65)">
<path d="M1.06226 5.22754H2.12101C3.77786 5.22754 5.12101 6.57068 5.12101 8.22754V47.8975" stroke="#07AFEF" stroke-width="3" stroke-miterlimit="10" stroke-linecap="round" stroke-linejoin="round"/>
<path d="M44.8123 9.28613C46.4692 9.28613 47.8123 10.6293 47.8123 12.2861V36.7799C47.8123 38.4367 46.4692 39.7799 44.8123 39.7799H34.5948C34.0315 39.7799 33.5748 39.3232 33.5748 38.7599V38.7599C33.5748 38.1966 33.1182 37.7399 32.5548 37.7399H22.6292C21.8281 37.7399 21.0603 38.0603 20.4968 38.6297L20.2391 38.8901C19.6757 39.4595 18.9078 39.7799 18.1067 39.7799H8.1211C6.46424 39.7799 5.12109 38.4367 5.12109 36.7799V12.2861C5.12109 10.6293 6.46424 9.28613 8.12109 9.28613H44.8123Z" stroke="#07AFEF" stroke-width="3" stroke-miterlimit="10" stroke-linecap="round" stroke-linejoin="round"/>
<path d="M12.2786 17.4253H8.12109C6.46424 17.4253 5.12109 18.7684 5.12109 20.4253V28.6628C5.12109 30.3196 6.46424 31.6628 8.12109 31.6628H12.2786C13.9354 31.6628 15.2786 30.3196 15.2786 28.6628V20.4253C15.2786 18.7684 13.9354 17.4253 12.2786 17.4253Z" stroke="#07AFEF" stroke-width="3" stroke-miterlimit="10" stroke-linecap="round" stroke-linejoin="round"/>
<path d="M32.5763 31.6413C36.5078 31.6413 39.695 28.4541 39.695 24.5226C39.695 20.591 36.5078 17.4038 32.5763 17.4038C28.6447 17.4038 25.4575 20.591 25.4575 24.5226C25.4575 28.4541 28.6447 31.6413 32.5763 31.6413Z" stroke="#07AFEF" stroke-width="3" stroke-miterlimit="10" stroke-linecap="round" stroke-linejoin="round"/>
</g>
<defs>
<clipPath id="clip0_2767_65">
<rect width="51" height="51" fill="white"/>
</clipPath>
</defs>
</svg>
