<svg width="103" height="103" viewBox="0 0 103 103" fill="none" xmlns="http://www.w3.org/2000/svg">
<g clip-path="url(#clip0_2243_129)">
<path d="M2.14551 10.5575H7.34259C8.99945 10.5575 10.3426 11.9006 10.3426 13.5575V96.7342" stroke="#07AFEF" stroke-width="6" stroke-miterlimit="10" stroke-linecap="round" stroke-linejoin="round"/>
<path d="M93.5624 18.7545C95.2192 18.7545 96.5624 20.0977 96.5624 21.7545V77.3399C96.5624 78.9968 95.2192 80.3399 93.5624 80.3399H69.8682C68.7305 80.3399 67.8082 79.4176 67.8082 78.2799V78.2799C67.8082 77.1422 66.8859 76.2199 65.7482 76.2199H44.4259C43.6248 76.2199 42.857 76.5403 42.2935 77.1097L39.9775 79.4501C39.414 80.0195 38.6462 80.3399 37.8451 80.3399H13.3428C11.6859 80.3399 10.3428 78.9968 10.3428 77.3399V21.7545C10.3428 20.0977 11.6859 18.7545 13.3428 18.7545H93.5624Z" stroke="#07AFEF" stroke-width="6" stroke-miterlimit="10" stroke-linecap="round" stroke-linejoin="round"/>
<path d="M27.8569 35.1918H13.3428C11.6859 35.1918 10.3428 36.5349 10.3428 38.1918V60.9459C10.3428 62.6028 11.6859 63.9459 13.3428 63.9459H27.8569C29.5138 63.9459 30.8569 62.6028 30.8569 60.9459V38.1918C30.8569 36.5349 29.5138 35.1918 27.8569 35.1918Z" stroke="#07AFEF" stroke-width="6" stroke-miterlimit="10" stroke-linecap="round" stroke-linejoin="round"/>
<path d="M65.7911 63.9029C73.7314 63.9029 80.1682 57.466 80.1682 49.5258C80.1682 41.5855 73.7314 35.1487 65.7911 35.1487C57.8509 35.1487 51.4141 41.5855 51.4141 49.5258C51.4141 57.466 57.8509 63.9029 65.7911 63.9029Z" stroke="#07AFEF" stroke-width="6" stroke-miterlimit="10" stroke-linecap="round" stroke-linejoin="round"/>
</g>
<defs>
<clipPath id="clip0_2243_129">
<rect width="103" height="103" fill="white"/>
</clipPath>
</defs>
</svg>
