<svg width="51" height="51" viewBox="0 0 51 51" fill="none" xmlns="http://www.w3.org/2000/svg">
<path d="M42.5 19.125V12.75C42.5 11.6228 42.0522 10.5418 41.2552 9.7448C40.4582 8.94777 39.3772 8.5 38.25 8.5H12.75C11.6228 8.5 10.5418 8.94777 9.7448 9.7448C8.94777 10.5418 8.5 11.6228 8.5 12.75V19.125M42.5 19.125C43.6272 19.125 44.7082 19.5728 45.5052 20.3698C46.3022 21.1668 46.75 22.2478 46.75 23.375V34C46.75 35.1272 46.3022 36.2082 45.5052 37.0052C44.7082 37.8022 43.6272 38.25 42.5 38.25M42.5 19.125C41.3728 19.125 40.2918 19.5728 39.4948 20.3698C38.6978 21.1668 38.25 22.2478 38.25 23.375V27.625H12.75V23.375C12.75 22.2478 12.3022 21.1668 11.5052 20.3698C10.7082 19.5728 9.62717 19.125 8.5 19.125M8.5 19.125C7.37283 19.125 6.29183 19.5728 5.4948 20.3698C4.69777 21.1668 4.25 22.2478 4.25 23.375V34C4.25 35.1272 4.69777 36.2082 5.4948 37.0052C6.29183 37.8022 7.37283 38.25 8.5 38.25M8.5 38.25H42.5M8.5 38.25V42.5M42.5 38.25V42.5M25.5 8.5V27.625" stroke="#07AFEF" stroke-width="3" stroke-linecap="round" stroke-linejoin="round"/>
</svg>
